<svg version="1.1" id="Layer_1" xmlns="http://www.w3.org/2000/svg" xmlns:xlink="http://www.w3.org/1999/xlink" x="0px" y="0px"
	 width="100%" viewBox="0 0 496 496" enable-background="new 0 0 496 496" xml:space="preserve">
<path fill="#000000" opacity="1.000000" stroke="none" 
	d="
M103.072563,239.330414 
	C105.181839,216.401749 112.176620,195.511932 124.606682,176.756485 
	C142.592331,149.618332 167.005829,130.740799 198.490433,121.335800 
	C224.718277,113.501068 251.025970,113.085732 277.171478,120.910423 
	C309.681915,130.640015 335.257141,149.936142 353.378357,178.785812 
	C370.203918,205.572723 376.562988,234.863098 373.338074,266.172272 
	C370.549286,293.246826 359.992737,317.220947 342.544464,338.042358 
	C321.424286,363.245453 294.417023,379.046082 262.177002,384.609314 
	C235.987503,389.128510 209.963028,386.895905 185.340668,375.834137 
	C144.358627,357.422729 117.828445,326.615479 106.444916,282.969147 
	C102.739815,268.763184 102.568169,254.313126 103.072563,239.330414 
M139.135880,328.367340 
	C147.294525,338.837006 157.016220,347.670776 167.953583,355.095703 
	C197.626816,375.239563 230.355789,381.214722 265.174591,374.079468 
	C290.779297,368.832397 312.639801,356.019745 330.430359,336.746918 
	C357.772888,307.126251 368.806396,272.009033 363.144684,232.294891 
	C358.922241,202.676758 345.346588,177.482712 322.850311,157.286224 
	C308.182831,144.118240 291.379730,134.755478 272.546143,129.547745 
	C250.859970,123.551239 228.940033,123.306610 206.943405,129.068329 
	C179.700684,136.204208 157.323547,150.652435 139.960297,172.659653 
	C121.130615,196.525482 112.070602,223.566757 112.792641,254.275635 
	C113.441078,281.853882 122.235397,306.058380 139.135880,328.367340 
z"/>
<path fill="#000000" opacity="1.000000" stroke="none" 
	d="
M330.997559,427.119629 
	C270.019989,427.119629 209.542023,427.112701 149.064056,427.138367 
	C146.070831,427.139648 142.431717,426.122009 141.899536,430.997040 
	C141.788467,432.014313 140.684769,432.539703 139.554932,432.412384 
	C138.187607,432.258331 137.421494,431.291840 137.289108,430.090912 
	C136.869675,426.286255 136.687103,422.456329 137.372818,418.662262 
	C137.610428,417.347473 138.104919,415.979004 139.847931,416.044556 
	C141.203354,416.095551 142.084930,417.001343 142.149490,418.257721 
	C142.320908,421.592957 144.514175,421.701996 147.030701,421.701324 
	C212.506699,421.683929 277.982697,421.679199 343.458649,421.739594 
	C346.213989,421.742126 347.885956,420.963928 348.461578,418.143707 
	C348.704407,416.953949 349.515198,415.964539 350.903870,416.074097 
	C352.523651,416.201935 353.181244,417.409882 353.209351,418.849884 
	C353.280823,422.512421 353.275330,426.177887 353.216431,429.840820 
	C353.196442,431.083038 352.653503,432.124298 351.237122,432.327118 
	C350.163696,432.480804 348.971283,432.216187 348.749847,431.155853 
	C347.708527,426.169556 343.872742,427.142517 340.493896,427.116486 
	C337.495148,427.093384 334.496063,427.116547 330.997559,427.119629 
z"/>
<path fill="#000000" opacity="1.000000" stroke="none" 
	d="
M251.000122,94.805206 
	C281.476501,94.789146 311.452881,94.766876 341.429260,94.767578 
	C344.603027,94.767654 347.938538,95.293724 348.681824,90.788696 
	C348.851593,89.759804 349.860596,89.189209 350.979858,89.286842 
	C352.102356,89.384758 352.990784,90.160835 353.024048,91.161301 
	C353.162018,95.311539 353.157684,99.468811 353.094574,103.621819 
	C353.078461,104.682953 352.293091,105.458740 351.220703,105.685776 
	C349.824066,105.981453 348.811737,105.185341 348.612976,103.964653 
	C347.965668,99.989662 345.092010,100.242752 342.183258,100.243454 
	C277.400848,100.259117 212.618423,100.253296 147.836014,100.253296 
	C145.196350,100.253296 142.301590,99.730034 142.040878,103.795097 
	C141.956924,105.104187 140.767151,105.768494 139.496292,105.693726 
	C138.103058,105.611763 137.617981,104.489960 137.377808,103.277283 
	C136.589264,99.295456 137.494980,95.315651 137.429810,91.332420 
	C137.412781,90.292068 138.099991,89.436745 139.256882,89.281189 
	C140.604919,89.099915 141.838028,89.825775 141.935318,90.987617 
	C142.325378,95.645851 145.703842,94.783424 148.580734,94.785217 
	C182.553864,94.806396 216.526993,94.802750 251.000122,94.805206 
z"/>
<path fill="#000000" opacity="1.000000" stroke="none" 
	d="
M261.556274,414.249207 
	C263.149872,413.773590 264.485748,413.255798 265.899048,412.708008 
	C266.130829,417.677856 263.662476,418.568665 255.833466,416.586060 
	C255.641937,413.577881 258.518585,412.660706 259.874542,410.732330 
	C261.147919,408.921387 264.072968,407.454346 260.892273,404.346985 
	C258.523621,407.627106 255.115646,409.690643 254.383789,413.989380 
	C253.976395,416.382294 252.063309,418.166351 249.368088,418.044769 
	C246.981720,417.937103 245.552536,416.255463 244.597977,414.153351 
	C243.598038,411.951416 243.270813,409.695007 243.902008,407.339050 
	C245.475342,401.466553 249.214920,400.565460 254.748795,404.820862 
	C255.650986,404.177551 256.517242,403.378754 257.529907,402.873108 
	C260.143158,401.568176 262.808228,401.503418 264.830750,403.837128 
	C266.988556,406.326874 265.121979,408.382599 263.758209,410.534027 
	C262.967468,411.781494 260.423065,411.882446 261.556274,414.249207 
M251.582718,407.190674 
	C251.225739,405.229736 249.819733,403.382874 248.686996,405.860931 
	C247.419113,408.634705 246.548309,412.329407 249.279526,415.615967 
	C252.134323,413.300751 251.504929,410.516144 251.582718,407.190674 
z"/>
<path fill="#000000" opacity="1.000000" stroke="none" 
	d="
M164.982849,68.429474 
	C168.223816,61.311676 174.129440,60.280201 180.594376,60.545193 
	C182.611893,60.627892 185.144287,60.362713 185.083694,64.428566 
	C180.209763,64.171165 174.797623,61.101658 171.062454,66.677505 
	C169.034454,69.704887 168.928192,72.941536 169.312119,76.264420 
	C170.064514,82.776215 173.726974,84.418388 185.619431,83.782951 
	C183.915970,87.569794 178.297791,88.350418 171.459320,85.750404 
	C164.680252,83.172997 162.216888,76.877724 164.982849,68.429474 
z"/>
<path fill="#000000" opacity="1.000000" stroke="none" 
	d="
M303.539368,86.894638 
	C296.051880,83.307816 294.536896,74.889618 300.237427,70.261536 
	C302.873810,68.121147 305.905701,67.364342 309.046478,69.006241 
	C312.101868,70.603508 312.803223,73.368774 312.226807,76.592400 
	C310.151001,77.858505 307.930328,77.113335 305.837372,77.387680 
	C304.193817,77.603119 301.616577,76.650795 301.626740,79.452942 
	C301.635468,81.862267 303.601624,83.036758 305.904816,83.606003 
	C307.765381,84.065842 309.772369,82.408829 311.930054,84.309547 
	C309.663055,86.820885 306.933228,87.275543 303.539368,86.894638 
z"/>
<path fill="#000000" opacity="1.000000" stroke="none" 
	d="
M199.870880,86.306038 
	C197.860855,84.566208 196.290070,85.537125 194.607651,86.348038 
	C191.767456,87.717010 189.188080,87.202415 188.002686,84.169662 
	C186.798141,81.087959 188.587540,79.126266 191.429047,78.029633 
	C192.046402,77.791359 192.714096,77.684860 193.334869,77.453880 
	C195.078033,76.805283 197.046249,76.172943 196.396225,73.722488 
	C195.804825,71.492996 193.868652,71.410767 191.950439,71.452103 
	C191.013443,71.472313 190.027145,72.226761 188.856155,71.071968 
	C190.041855,68.069359 192.858276,68.309052 195.246780,68.305786 
	C197.390915,68.302849 199.572327,68.850845 200.421356,71.394562 
	C201.964981,76.019325 200.814056,80.916161 201.841629,85.598946 
	C201.870834,85.731956 200.764191,86.114212 199.870880,86.306038 
z"/>
<path fill="#000000" opacity="1.000000" stroke="none" 
	d="
M274.475708,86.102310 
	C272.265930,84.618896 270.655945,86.011887 269.033478,86.613701 
	C266.396698,87.591751 264.206207,86.829704 263.075012,84.546852 
	C260.835632,80.027657 261.788849,75.143471 262.263580,70.385101 
	C262.374237,69.276146 263.455566,68.855141 264.551270,68.980751 
	C265.774811,69.121025 266.179962,70.058784 266.211060,71.104645 
	C266.299774,74.090118 266.313599,77.077896 266.348572,80.064865 
	C266.367401,81.671379 266.709442,83.276825 268.562775,83.410332 
	C270.587280,83.556175 271.510803,82.053635 271.604706,80.209000 
	C271.739532,77.559059 271.660645,74.898926 271.748474,72.245644 
	C271.797363,70.769524 271.734741,69.054184 273.868164,68.969055 
	C276.000488,68.883965 276.082458,70.529572 276.219910,72.053627 
	C276.588745,76.142265 275.615570,80.291748 277.250366,84.355286 
	C277.960419,86.120239 276.301819,86.477119 274.475708,86.102310 
z"/>
<path fill="#000000" opacity="1.000000" stroke="none" 
	d="
M216.865372,81.775909 
	C216.248535,78.918098 216.111252,76.433334 216.824783,73.978577 
	C217.961761,70.067039 222.149796,67.559624 226.218964,68.441269 
	C230.545975,69.378761 232.065598,72.277832 231.737625,76.420967 
	C228.286087,78.520142 224.232422,76.109154 220.817749,78.439606 
	C221.402618,85.040184 226.727341,83.184784 230.687469,83.744553 
	C226.497986,88.811386 221.189178,88.097412 216.865372,81.775909 
M223.696732,71.639977 
	C222.603043,72.074730 221.616867,72.585716 222.015396,74.305626 
	C223.727432,75.077904 225.388382,75.360085 226.886597,73.781738 
	C226.523209,72.159264 225.404694,71.900108 223.696732,71.639977 
z"/>
<path fill="#000000" opacity="1.000000" stroke="none" 
	d="
M199.281540,417.335968 
	C197.500000,417.172150 195.596588,417.600372 196.186462,415.059143 
	C197.168289,410.829315 196.552277,406.567383 196.241638,402.352081 
	C204.273392,400.837738 205.798477,401.416901 205.625031,405.812195 
	C204.649460,406.124023 204.108215,405.386414 203.471008,404.901062 
	C202.809982,404.397614 202.176788,403.845581 200.788361,404.274963 
	C201.421448,405.292206 198.041077,407.293579 202.309631,407.591461 
	C203.938049,407.705078 203.682297,410.896851 202.699951,411.071472 
	C199.428696,411.653137 199.612167,413.650696 201.156464,415.036407 
	C203.117584,416.796173 204.128891,414.053009 205.333496,412.962097 
	C207.318573,413.496521 208.428024,415.710632 210.728455,415.288208 
	C210.786331,413.720856 209.282059,413.726837 208.536636,413.023224 
	C207.264389,411.822357 206.924454,410.484497 208.032791,409.066193 
	C209.078552,407.727936 210.734299,407.375061 212.102417,408.016968 
	C215.193405,409.467285 213.993484,412.612457 214.157227,415.000519 
	C214.302155,417.114502 212.338760,418.510162 210.377136,417.742615 
	C206.763687,416.328796 203.203735,417.874420 199.281540,417.335968 
z"/>
<path fill="#000000" opacity="1.000000" stroke="none" 
	d="
M214.811523,59.736950 
	C216.442017,59.879978 217.558350,60.203560 217.393387,61.789818 
	C217.290573,62.778587 216.529739,63.282104 215.644440,63.079746 
	C213.020874,62.480061 211.977448,63.948063 211.500198,66.119942 
	C210.915253,68.781891 213.839111,68.343643 215.287766,69.943405 
	C211.273254,71.483086 211.008942,74.603882 211.218445,78.014221 
	C211.339752,79.988846 211.229462,81.986145 211.097656,83.964859 
	C211.011490,85.258728 210.310440,86.117142 208.859985,86.080833 
	C207.379761,86.043777 206.836441,85.079674 206.796906,83.813797 
	C206.709122,81.002724 206.629959,78.186409 206.707947,75.376694 
	C206.770157,73.136032 206.535080,71.090210 204.560883,69.646072 
	C208.382812,66.775238 207.661346,59.539162 214.811523,59.736950 
z"/>
<path fill="#000000" opacity="1.000000" stroke="none" 
	d="
M280.268311,70.002563 
	C284.940613,66.236404 285.244720,72.219574 287.889557,73.233887 
	C290.804840,73.202324 290.599884,68.483772 295.106262,69.258919 
	C288.627380,74.922256 290.437256,80.262787 295.707886,85.349136 
	C290.233643,87.978195 289.657166,82.713409 287.089203,81.154205 
	C284.200897,81.725929 284.170898,86.168716 279.471680,85.826775 
	C285.156250,80.530518 284.971100,75.379662 280.268311,70.002563 
z"/>
<path fill="#000000" opacity="1.000000" stroke="none" 
	d="
M245.662079,73.008682 
	C245.675644,69.691010 245.652756,66.867256 245.717468,64.045525 
	C245.752762,62.506603 245.913040,60.903164 248.056473,60.979424 
	C250.165955,61.054474 250.244080,62.692924 250.265350,64.199272 
	C250.326279,68.516106 250.313049,72.833977 250.329254,77.151443 
	C250.354248,83.807655 250.354324,83.806892 256.957306,83.581871 
	C257.617950,83.559357 258.284210,83.501144 258.937775,83.564072 
	C259.217651,83.591026 259.471771,83.886002 259.735352,84.057747 
	C260.249542,85.712067 259.164948,86.060738 257.936188,86.286255 
	C247.351913,88.228806 245.662109,86.811531 245.661896,75.994385 
	C245.661880,75.164070 245.662064,74.333763 245.662079,73.008682 
z"/>
<path fill="#000000" opacity="1.000000" stroke="none" 
	d="
M235.680695,417.376587 
	C231.084412,416.653503 232.957047,414.766937 234.593033,413.223175 
	C236.971588,410.978760 239.733597,409.028290 238.987427,405.111084 
	C238.429382,405.050781 238.047668,404.883636 237.829071,405.006592 
	C236.534912,405.734253 236.584137,408.425781 234.227798,407.560455 
	C233.202393,407.183838 232.771606,406.222260 233.010437,405.127991 
	C233.480988,402.972198 235.200897,402.328491 237.071152,402.101318 
	C239.355408,401.823883 241.379028,402.527222 242.668228,404.516083 
	C243.881622,406.388000 242.784683,408.004852 241.714584,409.501526 
	C240.874069,410.677094 239.910904,411.764954 239.062088,412.817566 
	C240.217407,414.610657 241.758972,412.645172 243.174026,414.146484 
	C243.041183,419.343903 238.601715,416.633575 235.680695,417.376587 
z"/>
<path fill="#000000" opacity="1.000000" stroke="none" 
	d="
M219.470825,413.353943 
	C220.843506,415.758636 223.939957,413.274536 225.440750,416.458282 
	C222.161575,416.444702 219.475403,419.830780 216.440948,416.546204 
	C214.407166,414.344849 215.024490,407.801422 217.391342,405.230713 
	C221.232574,407.022308 218.666870,410.461914 219.470825,413.353943 
z"/>
<path fill="#000000" opacity="1.000000" stroke="none" 
	d="
M274.327820,412.275513 
	C274.531250,413.966766 274.726654,415.251648 274.934570,416.619049 
	C274.442749,416.840698 274.023041,417.139465 273.567017,417.212830 
	C272.582306,417.371307 271.582520,417.396820 270.551178,416.465485 
	C270.542542,412.246002 271.297699,407.800323 269.993622,403.388031 
	C273.063263,401.722595 274.403259,402.553284 274.315826,405.893707 
	C274.263702,407.884094 274.315002,409.877228 274.327820,412.275513 
z"/>
<path fill="#000000" opacity="1.000000" stroke="none" 
	d="
M308.937683,322.939423 
	C278.864380,350.702301 244.028870,358.664246 205.973999,345.956390 
	C168.864822,333.564362 146.158722,306.606964 139.703110,267.855652 
	C129.494720,206.577255 172.477615,158.754044 224.313660,151.466843 
	C279.352386,143.729385 330.866241,181.857300 338.052826,236.984528 
	C342.362610,270.044067 332.681152,298.792114 308.937683,322.939423 
M290.358948,170.169540 
	C258.038330,150.639648 225.127487,149.246658 191.760849,167.272079 
	C153.442688,187.972427 134.101929,234.060760 145.830887,276.020996 
	C159.825821,326.087738 211.466064,358.455933 264.529022,343.363678 
	C311.763550,329.929169 341.083405,283.389771 333.430328,236.662430 
	C328.834564,208.602005 314.599609,186.503433 290.358948,170.169540 
z"/>
<path fill="#000000" opacity="1.000000" stroke="none" 
	d="
M247.918686,299.241882 
	C226.449982,305.923370 207.828751,292.208374 207.750397,270.043365 
	C207.727432,263.544403 207.751984,257.045288 207.718979,250.546402 
	C207.683640,243.587341 209.253510,241.040527 215.862701,238.536896 
	C224.725586,235.179504 233.969467,234.355560 243.356277,235.134323 
	C249.682495,235.659164 255.884918,236.761765 261.619476,239.754257 
	C264.806915,241.417572 266.845032,243.835052 267.263611,247.444565 
	C268.062927,254.337692 268.040833,254.340256 275.222992,254.695175 
	C282.687714,255.064041 288.207611,260.319458 289.121399,267.927673 
	C289.882904,274.268005 284.976715,281.293304 278.295685,282.840210 
	C275.588226,283.467102 272.664215,283.401672 269.854614,283.281158 
	C266.548615,283.139374 264.287781,284.013336 262.551514,287.160126 
	C259.390411,292.889282 254.411942,296.758728 247.918686,299.241882 
M255.897339,264.662476 
	C252.833679,265.378754 249.782074,266.036469 246.625183,266.380219 
	C236.408936,267.492523 226.442871,266.196014 216.557114,263.784241 
	C214.413620,263.261292 212.778061,262.980713 212.302719,266.049591 
	C209.699341,282.857666 222.627579,297.604156 239.309494,296.693207 
	C254.898514,295.841888 267.332764,277.385529 261.433899,263.487640 
	C259.886230,263.799133 258.288788,264.120636 255.897339,264.662476 
M277.477814,278.475708 
	C283.477783,275.193909 285.815338,270.810455 284.009979,266.226624 
	C281.801727,260.619965 276.560577,258.048431 270.207214,259.277313 
	C268.204315,259.664703 267.372742,260.710449 267.297455,262.626282 
	C267.097351,267.715485 267.589966,272.819763 266.451050,277.895569 
	C270.108704,279.319733 273.413391,278.654236 277.477814,278.475708 
M230.871689,252.465652 
	C229.361771,252.787033 227.851868,253.108414 225.929901,253.517502 
	C238.492645,255.178452 250.453262,255.856430 261.702911,248.289368 
	C254.171921,242.946457 246.889587,242.886734 240.269211,247.714783 
	C237.586349,249.671310 235.083191,251.880432 230.871689,252.465652 
M261.835571,254.868652 
	C261.197052,254.968781 260.528137,254.978760 259.924591,255.182465 
	C250.061539,258.511414 240.096451,260.020264 229.603668,258.541260 
	C223.921280,257.740326 218.463760,256.114319 212.918976,254.851532 
	C211.978683,257.477875 213.478531,258.173767 215.164780,258.669067 
	C229.607498,262.911255 244.087845,264.318115 258.621399,259.105499 
	C260.425385,258.458496 262.723389,258.160004 261.835571,254.868652 
M224.695969,248.656891 
	C231.660767,248.576874 234.177048,247.364990 243.024887,239.829330 
	C230.745636,238.118668 217.851334,240.860199 214.321198,245.999786 
	C217.310669,247.610596 220.681183,247.767502 224.695969,248.656891 
z"/>
<path fill="#000000" opacity="1.000000" stroke="none" 
	d="
M180.351837,245.258057 
	C185.511765,251.948486 185.403320,254.998871 179.604309,262.797302 
	C183.540070,267.270203 184.258469,272.568146 182.161102,278.311829 
	C180.658417,282.427002 178.767395,283.166412 175.015915,280.806824 
	C170.128891,277.733063 169.025742,272.998474 169.825165,267.748077 
	C170.204437,265.257141 169.980072,263.594788 168.052673,261.627869 
	C163.210464,256.686401 163.498322,249.721710 168.597198,244.811020 
	C170.322311,243.149536 170.479568,241.771240 170.040833,239.577057 
	C168.860687,233.675018 170.943314,228.950684 175.339096,226.136520 
	C178.676468,223.999939 180.887329,224.543365 182.059540,228.487274 
	C183.478012,233.259796 184.199768,237.929306 180.758179,242.241394 
	C180.136047,243.020844 179.625092,243.909363 180.351837,245.258057 
M174.229309,269.924011 
	C174.187103,272.476318 174.412643,274.882172 177.810196,275.984131 
	C178.894379,273.407959 179.368637,270.926453 177.704865,268.540649 
	C176.255630,266.462524 174.855453,266.210541 174.229309,269.924011 
M178.597412,233.350586 
	C178.034668,230.928162 176.853760,230.472046 175.496216,232.680115 
	C174.082489,234.979553 173.564285,237.468430 175.633194,239.928482 
	C178.228455,238.551971 178.668579,236.397049 178.597412,233.350586 
M171.272308,253.201584 
	C172.306641,251.501282 174.770782,250.767319 174.868256,247.976517 
	C170.396667,247.848083 169.371475,250.540253 169.523209,253.888382 
	C169.569672,254.913864 170.451706,253.909744 171.272308,253.201584 
M179.400391,253.544098 
	C176.044174,253.830612 175.016052,256.337067 173.424561,259.677094 
	C176.948929,258.461456 178.819992,256.932556 179.400391,253.544098 
z"/>
<path fill="#000000" opacity="1.000000" stroke="none" 
	d="
M313.303741,249.997498 
	C314.497162,254.555206 313.813416,258.461426 310.672852,261.403015 
	C308.427856,263.505768 307.984833,265.428833 308.752197,268.344208 
	C310.072754,273.361206 307.193512,278.868835 302.655945,281.316406 
	C300.080627,282.705566 298.171478,282.371460 297.037598,279.594360 
	C295.159851,274.995453 294.207703,270.286255 297.023132,265.745697 
	C298.324799,263.646423 298.643463,262.073456 296.922119,259.988525 
	C293.491119,255.832870 293.924530,251.286423 296.788544,247.097519 
	C298.192841,245.043594 298.651611,243.517639 297.244232,241.315536 
	C294.824554,237.529480 295.251801,233.357315 296.400360,229.291183 
	C297.833862,224.216278 299.948120,223.665283 304.273438,226.815994 
	C307.895142,229.454132 309.520874,233.495438 308.762573,237.278259 
	C307.900482,241.578979 308.549438,244.409225 311.896820,246.972519 
	C312.599579,247.510666 312.792023,248.715210 313.303741,249.997498 
M303.860718,273.144379 
	C304.936768,270.761871 305.147430,268.551331 302.725616,266.618988 
	C299.246948,269.450836 298.721771,272.459839 301.092957,276.051117 
	C302.529572,275.797180 302.968903,274.692200 303.860718,273.144379 
M300.334198,236.748947 
	C300.826080,238.088959 301.045044,239.664688 302.918518,239.842545 
	C305.354340,235.562225 304.968170,233.903198 300.960846,231.359268 
	C299.881653,232.793823 300.107391,234.432114 300.334198,236.748947 
M309.495819,253.582825 
	C308.849030,250.393494 307.831177,247.602707 303.214264,247.892181 
	C304.567017,251.125061 306.311890,253.247314 309.495819,253.582825 
M303.402771,256.042358 
	C302.256989,255.056641 301.405945,253.601746 299.407745,253.364639 
	C299.507355,256.878174 301.146515,258.500214 304.079163,259.158356 
	C304.721619,257.867798 304.217926,257.201508 303.402771,256.042358 
z"/>
<path fill="#000000" opacity="1.000000" stroke="none" 
	d="
M195.499191,299.500244 
	C225.189575,326.643768 266.312744,322.319977 289.634308,289.875793 
	C290.758911,288.311279 291.778046,285.731171 294.148590,287.242645 
	C296.604401,288.808533 294.579315,290.887909 293.543274,292.382935 
	C281.565796,309.666809 265.303284,319.819794 244.131668,321.320465 
	C218.835922,323.113434 198.774841,313.564606 184.020264,292.918793 
	C183.536591,292.242004 183.066620,291.553314 182.629333,290.846008 
	C181.888702,289.648071 181.308136,288.293091 182.727585,287.308472 
	C184.232117,286.264801 185.639114,286.925629 186.583054,288.322235 
	C189.196609,292.188995 191.898331,295.978119 195.499191,299.500244 
z"/>
<path fill="#000000" opacity="1.000000" stroke="none" 
	d="
M263.126190,194.935226 
	C235.135010,182.084808 202.509689,193.806107 187.517578,217.047958 
	C186.456299,218.693207 185.379257,221.236877 183.059738,219.772003 
	C180.311371,218.036270 182.626266,215.884857 183.756897,214.290955 
	C196.861252,195.816956 214.604965,185.821182 237.420959,185.522476 
	C260.352325,185.222290 278.660980,194.430008 292.320190,212.846619 
	C293.307037,214.177185 294.164734,215.621811 294.927307,217.093811 
	C295.407196,218.020126 295.329926,219.092117 294.420868,219.806961 
	C293.272369,220.710083 292.166687,220.260788 291.333160,219.324142 
	C290.453156,218.335251 289.738403,217.197968 288.964386,216.116287 
	C282.331573,206.847015 274.017639,199.617599 263.126190,194.935226 
z"/>
<path fill="#000000" opacity="1.000000" stroke="none" 
	d="
M229.915558,217.066452 
	C231.750290,219.456680 233.410904,221.523560 235.023010,223.627609 
	C235.955811,224.845093 236.897812,226.301590 235.532578,227.613342 
	C234.137360,228.953918 232.690491,227.976944 231.654190,226.838593 
	C227.262039,222.014038 223.339966,216.861008 221.992416,210.287079 
	C220.992569,205.409378 224.262009,200.584961 228.865631,199.793961 
	C233.867599,198.934509 238.666168,202.279129 239.588654,207.202957 
	C239.812424,208.397339 240.122086,209.608841 238.773560,210.224762 
	C237.306168,210.894974 236.231903,210.194534 235.518494,208.845337 
	C235.131104,208.112762 234.803894,207.333389 234.319656,206.669907 
	C233.056351,204.938950 231.399094,203.681320 229.232712,204.722412 
	C226.894302,205.846176 225.754700,207.919052 226.706879,210.496445 
	C227.506088,212.659790 228.701233,214.676865 229.915558,217.066452 
z"/>
<path fill="#000000" opacity="1.000000" stroke="none" 
	d="
M245.973709,227.133392 
	C244.808609,227.840958 243.986679,228.420456 243.084518,228.817749 
	C241.976440,229.305710 240.757019,229.493332 239.988602,228.270264 
	C239.114380,226.878830 239.759933,225.799194 240.922684,224.863052 
	C242.980408,223.206390 245.105331,221.609497 246.989838,219.770081 
	C248.162064,218.625946 249.177689,217.078308 247.545929,215.444427 
	C246.068665,213.965240 244.623810,214.330063 243.184769,215.610153 
	C241.957596,216.701752 240.474838,218.233719 239.110901,216.127411 
	C238.071518,214.522308 239.186493,212.794022 240.474869,211.747330 
	C243.309814,209.444229 246.503479,208.986145 249.634689,211.147446 
	C252.706238,213.267548 253.872726,216.102676 252.206650,219.741318 
	C250.865555,222.670212 248.899857,225.060867 245.973709,227.133392 
z"/>
</svg>