<svg version="1.1" id="Layer_1" xmlns="http://www.w3.org/2000/svg" xmlns:xlink="http://www.w3.org/1999/xlink" x="0px" y="0px"
	 width="100%" viewBox="0 0 496 496" enable-background="new 0 0 496 496" xml:space="preserve">
<path fill="#000000" opacity="1.000000" stroke="none" 
	d="
M293.069305,250.094009 
	C287.152496,253.931458 280.219391,254.402008 273.604095,255.742630 
	C250.945129,260.334503 228.184677,262.412933 205.290894,257.286652 
	C201.382477,256.411499 197.515625,255.325516 194.162872,253.024353 
	C189.963745,250.142242 190.024078,247.316757 194.420456,244.637894 
	C199.058151,241.811905 204.359222,240.882004 209.587570,239.908508 
	C212.687515,239.331284 215.943146,238.593536 218.997498,238.976074 
	C225.315125,239.767273 228.040771,236.434875 229.727982,231.180450 
	C231.100983,226.904495 232.788788,222.724640 234.040268,218.415970 
	C235.377686,213.811401 234.608902,209.572327 232.741852,204.933853 
	C228.652206,194.773560 221.719498,185.320450 223.604156,173.347229 
	C224.016876,170.725327 224.345047,168.215729 226.218903,165.075226 
	C228.071442,170.003433 227.103378,174.334808 228.017471,178.399979 
	C228.814423,181.944138 228.984909,185.637939 229.313980,189.276306 
	C229.729782,193.873322 231.562881,197.518219 235.649155,199.967941 
	C240.616837,202.946060 241.644501,207.654678 240.896347,212.966248 
	C239.647049,221.835632 235.247589,229.558167 231.496017,237.599365 
	C236.052170,239.729019 238.383392,238.516586 239.668747,233.825836 
	C241.517365,227.079514 243.208282,220.311295 244.382492,213.424301 
	C245.095383,209.243164 244.128540,205.376938 242.685394,201.299866 
	C238.461334,189.366440 231.293045,178.190933 232.634720,164.690552 
	C232.975998,161.256638 233.353439,157.932846 235.843475,153.745087 
	C236.750305,163.151550 237.678070,171.182938 238.252548,179.239532 
	C238.710266,185.658707 240.619217,190.814331 246.008362,195.127869 
	C252.709702,200.491699 250.848358,208.405548 249.780121,215.619675 
	C248.635010,223.353027 245.264130,230.484299 242.679764,238.013672 
	C247.224319,239.562027 250.569733,239.288910 252.141541,234.457520 
	C252.192307,234.301514 252.286728,234.157211 252.374878,234.016251 
	C260.088318,221.684586 259.384613,209.480133 252.549698,196.920258 
	C247.471634,187.588791 249.142746,178.202957 253.630219,168.774490 
	C255.808731,170.194016 255.057541,171.587708 254.851440,172.765060 
	C253.836441,178.563477 254.602509,184.407669 254.293274,190.217239 
	C254.006439,195.605927 255.453445,199.771439 260.308685,202.949051 
	C266.130402,206.759186 264.781494,212.911621 263.755157,218.435928 
	C262.778503,223.692673 260.142578,228.427216 257.750610,233.195328 
	C256.879120,234.932541 255.447174,236.487625 255.713943,239.150009 
	C266.887024,241.253616 278.481995,241.381439 289.623291,244.075912 
	C289.579987,244.484940 289.536682,244.893951 289.493408,245.302979 
	C282.767395,244.815720 276.042084,244.318451 269.315125,243.844482 
	C264.336884,243.493729 259.349274,243.252640 254.380417,242.802216 
	C252.250580,242.609146 251.486572,244.065781 250.477066,245.356506 
	C248.679733,247.654480 247.452835,250.440781 244.539413,252.796509 
	C243.869217,248.606110 247.352554,246.306015 247.156631,242.959976 
	C238.076111,239.240646 239.012314,249.426224 234.389160,252.251709 
	C233.248535,248.618256 236.331543,246.079605 236.058182,242.955093 
	C231.219421,240.220505 228.024368,241.679688 225.695908,246.478622 
	C224.738434,248.451935 223.682877,250.647919 221.054977,251.927856 
	C220.488083,248.196228 223.782593,246.011414 223.761948,242.402847 
	C215.473297,241.770920 207.547699,242.633560 199.934097,245.845230 
	C198.720566,246.357147 197.410339,247.111969 197.446762,248.675064 
	C197.489731,250.519943 199.093887,251.076752 200.486984,251.562958 
	C206.677536,253.723495 213.155197,254.373535 219.628265,254.640198 
	C243.960587,255.642624 268.206299,255.061707 292.581146,249.961563 
	C293.018707,250.020981 293.069305,250.094009 293.069305,250.094009 
z"/>
<path fill="#000000" opacity="1.000000" stroke="none" 
	d="
M279.042664,296.875458 
	C292.521729,297.517365 305.725128,297.265991 318.416931,301.397125 
	C319.207703,301.654510 320.021423,301.852448 320.791565,302.160339 
	C325.057007,303.865479 329.344452,305.851593 330.170319,310.916077 
	C331.039978,316.248688 326.478729,318.422455 323.024750,320.771576 
	C311.732117,328.451904 298.807251,331.671051 285.504425,333.243652 
	C252.892303,337.098938 221.200897,331.769775 189.924332,322.963257 
	C185.432114,321.698334 181.087112,319.895294 177.198944,317.286652 
	C173.304337,314.673584 172.730164,310.984680 176.199265,308.758331 
	C185.321060,302.904327 195.866592,301.648163 206.291397,300.130127 
	C202.535721,303.168640 197.741302,303.284546 193.552994,305.081024 
	C190.957993,306.194092 188.209946,306.961182 185.854858,308.582031 
	C181.725037,311.424255 181.725204,313.923920 186.045288,316.439270 
	C191.132980,319.401581 196.765533,320.909119 202.499039,322.068756 
	C227.526276,327.130676 252.789459,329.843170 278.321442,328.586700 
	C289.263611,328.048218 299.482300,324.403107 308.615814,318.124725 
	C309.437805,317.559662 310.304810,317.018372 310.998169,316.315399 
	C313.530182,313.748352 317.051544,311.330872 315.852173,307.187561 
	C314.699432,303.205536 310.503479,303.112549 307.171082,302.399994 
	C298.542511,300.554932 289.791565,299.627502 280.969391,299.320831 
	C277.676697,299.206390 277.680176,299.106506 279.042664,296.875458 
z"/>
<path fill="#000000" opacity="1.000000" stroke="none" 
	d="
M292.993286,249.984528 
	C295.734436,248.327133 297.191284,248.761948 296.386627,252.268204 
	C295.989929,253.996628 295.291504,255.655792 294.445648,258.200531 
	C299.551941,252.202621 304.440765,247.596024 312.056061,247.647766 
	C319.143585,247.695923 321.702393,250.997299 319.580322,257.918579 
	C317.276154,265.433746 312.597412,271.547272 307.099365,276.942535 
	C298.720490,285.164764 289.947174,292.894287 277.247406,293.328461 
	C275.315247,293.394501 274.411621,294.844452 273.260712,296.026123 
	C265.438904,304.057068 256.737335,310.278809 245.104416,311.772705 
	C237.510330,312.747986 230.731995,311.006012 224.716690,306.925812 
	C208.464706,295.902008 199.288116,279.299500 189.724869,262.084015 
	C192.556015,262.007233 192.911392,263.693176 193.628357,264.779541 
	C200.059448,274.523987 206.826157,284.002472 215.166504,292.245605 
	C219.462769,296.491760 224.268982,300.006897 229.770920,302.582092 
	C239.701782,307.230194 249.136353,306.147369 258.244019,300.381531 
	C266.287140,295.289612 272.268097,288.169983 277.733795,280.556549 
	C283.576172,272.418427 288.400635,263.666168 292.938904,254.760590 
	C293.587708,253.487427 295.301208,252.066162 293.316528,250.214600 
	C293.069305,250.094009 293.018707,250.020981 292.993286,249.984528 
M301.470764,255.968262 
	C295.842560,259.206024 291.647186,263.436371 289.429016,269.881470 
	C287.771576,274.697449 284.827637,279.083740 282.334320,283.593781 
	C280.956757,286.085571 279.327454,288.438141 277.271729,291.713745 
	C279.661194,290.939392 281.000519,290.716705 282.130615,290.106476 
	C293.584686,283.921448 303.278809,275.718933 310.622406,264.888031 
	C311.362396,263.796631 312.024994,262.588654 312.420227,261.338898 
	C313.965759,256.451660 310.756378,252.967346 305.795349,254.137894 
	C304.518158,254.439240 303.326355,255.102356 301.470764,255.968262 
z"/>
</svg>