<svg version="1.1" id="Layer_1" xmlns="http://www.w3.org/2000/svg" xmlns:xlink="http://www.w3.org/1999/xlink" x="0px" y="0px"
	 width="100%" viewBox="0 0 500 500" enable-background="new 0 0 500 500" xml:space="preserve">
<path fill="none" opacity="1.000000" stroke="#000000" stroke-linecap="round" stroke-linejoin="round" stroke-width="4.000000"
	d="
M172.500000,202.000000 
	C173.028885,218.399002 174.879349,234.687332 176.437912,251.005936 
	C177.740433,264.643707 178.151382,278.370911 179.619278,291.987152 
	C180.643311,301.486176 180.763153,311.062805 182.398209,320.517609 
	C183.103836,324.598053 182.909897,328.834442 183.339157,333.016510 
	C184.636093,345.652130 192.271851,349.149475 201.503296,349.342072 
	C224.493286,349.821747 247.506866,349.835938 270.497284,349.366302 
	C283.062225,349.109680 288.746857,342.481750 289.612976,329.507538 
	C290.303650,319.161072 291.291473,308.814117 292.307800,298.481110 
	C293.156830,289.848541 293.816071,281.165375 294.490601,272.499268 
	C295.322083,261.816193 296.412537,251.153183 297.318329,240.484573 
	C298.095001,231.336594 298.789581,222.163391 299.507507,213.000595 
	C299.795135,209.330338 300.166656,205.666672 300.500000,202.000000 
"/>
<path fill="none" opacity="1.000000" stroke="#000000" stroke-linecap="round" stroke-linejoin="round" stroke-width="4.000000"
	d="
M268.000000,247.000000 
	C269.830505,249.841782 273.088898,248.158661 275.596832,249.284225 
	C277.681519,250.219818 280.225616,250.747604 282.463898,251.595322 
	C285.161743,252.617065 288.083374,253.625504 289.968475,256.024780 
	C291.817474,258.378082 289.603882,260.660248 289.452911,262.996948 
	C288.547882,277.003082 287.911346,291.046021 286.352539,304.983521 
	C285.346008,313.983368 285.520538,323.112885 283.501465,332.000336 
	C281.974945,338.719635 276.454834,343.439117 269.499878,343.467010 
	C247.333557,343.555969 225.160583,343.803253 203.002838,343.358459 
	C193.452103,343.166748 189.484039,337.408691 188.448502,329.006348 
	C187.238632,319.189606 187.302399,309.258820 185.547302,299.491486 
	C184.898270,295.879547 184.968399,292.103271 184.770813,288.485199 
	C184.232727,278.632782 182.880249,268.852875 182.494019,259.000244 
	C182.449234,257.857758 182.565598,256.799652 183.570724,255.939514 
	C188.678284,257.800598 193.405746,260.651703 198.985092,261.588745 
	C209.902802,263.422394 220.446640,263.185883 230.499985,257.999969 
	C238.657104,253.792221 246.896500,249.890381 255.977493,247.897415 
	C259.847321,247.048126 263.761688,248.426025 267.500000,247.000000 
"/>
<path fill="none" opacity="1.000000" stroke="#000000" stroke-linecap="round" stroke-linejoin="round" stroke-width="4.000000"
	d="
M269.500000,181.000000 
	C267.728180,181.843353 265.838684,181.484924 264.000000,181.486099 
	C233.500000,181.505615 203.000000,181.496613 172.500000,181.508179 
	C170.617630,181.508896 168.847397,181.725876 166.950653,182.350006 
	C164.106155,183.286011 163.232758,184.782349 163.476196,187.502136 
	C163.609390,188.990204 163.500000,190.500000 163.500000,192.000000 
	C163.500000,200.025925 165.024597,201.758850 172.998535,201.460785 
	C200.663162,200.426666 228.334625,201.058060 255.999832,201.103302 
	C270.662445,201.127289 285.331940,200.537338 300.011780,201.260895 
	C302.844635,201.400513 307.660492,201.663437 308.867249,197.461868 
	C310.021301,193.443741 310.476746,189.037231 308.460999,185.019562 
	C306.844330,181.797302 303.696014,181.488190 300.500000,181.494064 
	C291.333374,181.510925 282.166595,181.512894 273.000092,181.478241 
	C272.166107,181.475098 271.333344,181.166656 270.500000,181.000000 
"/>
<path fill="none" opacity="1.000000" stroke="#000000" stroke-linecap="round" stroke-linejoin="round" stroke-width="4.000000"
	d="
M270.000000,180.500000 
	C271.166656,173.833328 272.347687,167.169144 273.496124,160.499329 
	C274.759003,153.164703 275.902130,152.702347 283.513428,154.441254 
	C297.531555,157.643921 311.123322,162.322540 324.997131,166.010834 
	C327.850342,166.769363 330.634949,167.804962 333.508270,168.463974 
	C336.877930,169.236832 338.014282,171.313232 337.485809,174.497650 
	C336.876740,178.167435 334.005737,178.005127 331.515869,177.431168 
	C325.965057,176.151566 320.451508,174.656021 315.010742,172.965454 
	C305.541656,170.023209 295.806641,168.003021 286.482910,164.546127 
	C283.073242,163.281952 281.769348,166.121506 281.630646,168.507599 
	C281.390991,172.629913 279.901611,176.455826 279.500000,180.500000 
"/>
<path fill="none" opacity="1.000000" stroke="#000000" stroke-linecap="round" stroke-linejoin="round" stroke-width="4.000000"
	d="
M253.500000,286.500000 
	C246.596008,291.403503 241.257416,297.911591 235.449417,303.951355 
	C233.704376,305.766022 234.463837,307.349884 235.561111,308.438385 
	C239.912476,312.754883 244.453583,316.885376 249.030045,320.966309 
	C250.301102,322.099792 251.755264,321.817566 253.010941,320.510498 
	C258.318481,314.985748 263.684967,309.517548 268.984833,303.985474 
	C270.068756,302.854034 270.043365,300.726227 269.403168,300.098785 
	C264.602417,295.393555 260.700745,289.665863 254.500000,286.500000 
"/>
<path fill="none" opacity="1.000000" stroke="#000000" stroke-linecap="round" stroke-linejoin="round" stroke-width="4.000000"
	d="
M265.500031,202.000000 
	C264.333344,208.666672 263.182129,215.336090 261.996155,221.999313 
	C260.512360,230.335526 259.000000,238.666672 257.500000,247.000000 
"/>
<path fill="none" opacity="1.000000" stroke="#000000" stroke-linecap="round" stroke-linejoin="round" stroke-width="4.000000"
	d="
M275.000000,202.000000 
	C273.167877,215.458557 270.647095,228.786545 267.544922,242.010544 
	C267.211395,243.432297 267.500000,245.000000 267.500000,246.500000 
"/>
<path fill="none" opacity="1.000000" stroke="#000000" stroke-linecap="round" stroke-linejoin="round" stroke-width="4.000000"
	d="
M227.000000,269.500000 
	C220.833328,271.166656 214.666229,272.831665 208.500107,274.500427 
	C201.836411,276.303864 201.834793,276.305908 203.500793,282.999817 
	C204.496582,287.000854 205.638535,290.971924 206.456589,295.008789 
	C207.123581,298.300293 208.435226,299.450897 212.022629,298.594818 
	C218.710709,296.998810 225.339645,295.148468 232.033752,293.650848 
	C236.228195,292.712433 235.892181,290.008881 235.390625,287.522064 
	C234.434143,282.779388 232.641220,278.209839 231.578903,273.482269 
	C231.025909,271.021271 230.061630,269.605042 227.500000,269.500000 
"/>
</svg>