<svg version="1.1" id="Layer_1" xmlns="http://www.w3.org/2000/svg" xmlns:xlink="http://www.w3.org/1999/xlink" x="0px" y="0px"
	 width="100%" viewBox="0 0 496 496" enable-background="new 0 0 496 496" xml:space="preserve">
<path fill="#000000" opacity="1.000000" stroke="none" 
	d="
M225.177444,376.037415 
	C215.395599,372.618744 210.087051,367.750275 211.036743,356.005737 
	C212.886063,333.136017 210.534058,310.118073 211.397293,287.136078 
	C212.009094,270.847687 211.233368,254.508255 211.125031,238.191284 
	C211.063156,228.871765 211.057541,219.551407 211.100464,210.231781 
	C211.138702,201.929413 211.183701,201.933746 219.171432,201.648392 
	C219.988510,201.619186 220.802490,201.503159 221.959183,201.395706 
	C221.322342,197.030426 218.809036,195.337753 214.862823,195.326721 
	C207.034592,195.304810 199.205688,195.368973 191.378235,195.285736 
	C186.251892,195.231216 184.669846,193.412979 184.657227,188.201843 
	C184.646469,183.762634 186.321304,181.494141 191.205383,181.594635 
	C202.027100,181.817291 212.870758,181.987411 223.677841,181.528610 
	C230.177277,181.252701 233.608932,184.269394 235.777985,189.743546 
	C236.268433,190.981323 236.760239,192.222488 237.164780,193.489761 
	C239.768570,201.646820 239.760666,201.652969 248.533585,201.653931 
	C264.356781,201.655670 280.181732,201.782562 296.002106,201.569977 
	C300.573334,201.508560 302.452606,202.621094 302.436707,207.647354 
	C302.272430,259.613556 302.280487,311.580536 302.417999,363.546875 
	C302.429108,367.745361 300.680511,369.824890 297.288879,371.669952 
	C274.044006,384.314819 250.131866,385.467590 225.177444,376.037415 
M298.014374,259.079376 
	C298.014374,250.805923 298.014374,242.532455 298.014374,233.405426 
	C288.607880,236.517868 280.869751,233.698593 273.220642,230.166290 
	C270.235901,228.787933 266.754730,228.452759 263.942261,229.694443 
	C257.447144,232.562027 251.253036,236.105804 243.720306,234.501114 
	C243.572449,235.890564 243.373199,236.555923 243.453186,237.185852 
	C246.339554,259.919464 249.393448,282.633362 252.031219,305.395508 
	C252.510162,309.528290 253.497391,312.286957 257.637909,313.565979 
	C260.120789,314.332947 260.253876,316.254028 259.312195,318.408325 
	C256.645660,324.508820 254.402710,330.838989 251.219894,336.655731 
	C248.491791,341.641449 244.778320,345.729980 237.769440,344.449280 
	C233.738754,343.712738 229.463348,344.289398 225.298584,344.326752 
	C223.836914,344.339844 222.241486,344.120605 221.491394,345.952545 
	C220.292526,348.880646 223.461685,359.381531 226.156570,361.280670 
	C244.093292,373.921082 269.839813,373.812317 287.718964,361.164398 
	C290.641907,359.096680 291.456757,356.513824 291.748657,353.127136 
	C293.147461,336.897308 294.816772,320.690948 296.342438,304.471771 
	C297.459076,292.600403 298.723724,280.728729 297.569000,267.483673 
	C292.853546,272.339966 288.793335,276.426544 284.848816,280.621948 
	C282.725464,282.880371 280.759491,283.209900 278.507812,280.860901 
	C274.704590,276.893280 270.882935,272.941589 266.992218,269.060181 
	C264.801605,266.874786 265.281006,265.117279 267.333252,263.144714 
	C271.054871,259.567688 274.703705,255.908234 278.247375,252.155182 
	C280.564911,249.700729 282.488129,249.521866 284.851624,252.158081 
	C288.709381,256.460999 292.787598,260.566223 296.888794,264.876770 
	C297.543457,263.924377 297.845001,263.683960 297.865662,263.421478 
	C297.956940,262.260742 297.967407,261.093658 298.014374,259.079376 
M254.737686,229.363907 
	C263.174530,223.489975 271.726929,223.728516 280.576263,228.546600 
	C284.445801,230.653412 288.685913,231.282883 293.152069,230.201080 
	C296.577240,229.371414 298.291473,227.734711 298.054749,223.977417 
	C297.793579,219.831573 297.744049,215.636322 298.070587,211.499542 
	C298.406769,207.240646 297.200531,205.738113 292.602966,205.831055 
	C277.458191,206.137146 262.303009,205.901917 247.152054,205.953079 
	C245.046936,205.960175 242.863281,205.198486 240.386154,206.482285 
	C239.959595,212.657410 241.842911,218.775452 242.132950,224.993088 
	C242.333984,229.302094 244.718643,230.303604 248.166443,230.639435 
	C250.201584,230.837662 252.142670,230.461914 254.737686,229.363907 
M228.277405,300.273865 
	C225.455627,297.444519 222.742462,294.494843 219.780762,291.820435 
	C216.952423,289.266418 216.702087,287.113037 219.657089,284.423126 
	C223.347015,281.064240 226.739670,277.380890 230.323944,273.902832 
	C231.864227,272.408173 232.452988,270.927612 232.144760,268.618317 
	C230.496841,256.272125 229.108032,243.891388 227.619537,231.523819 
	C227.441559,230.045105 227.389313,228.427353 225.661713,227.807205 
	C222.035400,226.505463 215.404877,230.779221 215.338684,234.543945 
	C214.786652,265.943451 215.269775,297.296814 219.857239,327.621277 
	C219.857239,325.968597 219.885788,323.476715 219.849762,320.985840 
	C219.808014,318.098663 221.189743,316.348877 224.067856,316.786957 
	C229.364044,317.593048 231.575256,314.660828 233.027664,310.294250 
	C233.734238,308.169922 234.788086,306.161133 235.799683,303.835754 
	C232.234818,305.046936 230.684891,302.541809 228.277405,300.273865 
M217.930710,356.054718 
	C217.111633,346.457916 216.292572,336.861115 215.473511,327.264282 
	C215.335968,339.083801 215.368988,350.902710 215.306931,362.721130 
	C215.295105,364.973572 216.088043,366.494629 218.063217,367.584473 
	C243.578613,381.663147 269.158875,381.544342 294.828918,368.023376 
	C296.726501,367.023895 298.007202,365.747345 297.995483,363.396545 
	C297.949463,354.166779 297.976685,344.936676 297.976685,335.706696 
	C296.951538,342.586426 295.953369,349.461517 295.595093,356.369812 
	C295.384216,360.436127 293.310242,362.680115 290.268372,364.725464 
	C269.569794,378.643127 243.139572,378.377258 222.746216,364.112701 
	C220.105026,362.265289 218.309509,360.165741 217.930710,356.054718 
M243.035828,336.513550 
	C243.130646,317.196411 245.774216,321.793915 228.611694,321.160156 
	C228.281158,321.147949 227.948517,321.202454 227.617279,321.197662 
	C225.397583,321.165436 224.465103,322.204559 224.179703,324.467865 
	C222.366425,338.847809 224.508423,341.155884 238.838303,340.022614 
	C240.742432,339.872009 242.555374,339.744934 243.035828,336.513550 
M235.137161,229.639740 
	C233.971130,229.312073 232.839569,228.015472 231.597885,229.483719 
	C232.888977,240.689743 234.115738,251.871933 235.486511,263.036438 
	C236.322525,269.845551 236.426331,277.115295 244.391357,280.386444 
	C244.461182,279.886902 244.637070,279.390320 244.580643,278.921692 
	C242.858963,264.619263 241.145264,250.315674 239.343796,236.023193 
	C239.035095,233.573898 238.640091,230.991501 235.137161,229.639740 
M237.631531,295.161194 
	C239.295975,293.554443 240.963760,291.951141 242.623840,290.339874 
	C243.975128,289.028290 244.538788,287.695465 242.945602,286.106415 
	C239.837952,283.006744 237.146164,279.457947 233.307083,276.925873 
	C232.040237,278.099243 230.903427,279.045532 229.888840,280.108459 
	C220.569748,289.871429 220.798187,286.361969 229.747177,296.020447 
	C232.664291,299.168854 234.838989,299.089355 237.631531,295.161194 
M206.491379,190.983246 
	C212.843369,191.209824 219.360184,189.806107 224.811798,195.180313 
	C227.215118,197.549530 232.501740,195.541763 232.434052,193.085526 
	C232.340500,189.690872 228.589081,185.495712 225.061981,185.436142 
	C215.577911,185.275894 206.089539,185.368088 196.602875,185.363098 
	C194.778061,185.362137 193.261490,185.698532 193.292770,188.051285 
	C193.321838,190.236725 194.614044,190.938889 196.518219,190.958115 
	C199.513611,190.988373 202.509415,190.978027 206.491379,190.983246 
M289.348480,269.926025 
	C290.340729,268.652130 291.987823,267.828827 291.235687,266.782562 
	C288.019775,263.074219 284.803864,259.365845 281.465942,255.516800 
	C277.513733,259.092560 273.831757,262.361694 270.618286,266.640564 
	C274.315460,270.252014 277.841431,273.696228 281.422363,277.194153 
	C284.529907,275.458832 286.299744,272.496490 289.348480,269.926025 
M225.825577,222.780136 
	C226.364136,217.938675 225.032913,213.251785 224.632385,208.488022 
	C224.396591,205.683624 222.282043,205.521774 220.229782,205.766220 
	C218.474869,205.975281 215.611130,204.761475 215.463089,207.827713 
	C215.186996,213.546524 215.383789,219.288162 215.383789,225.482620 
	C219.229202,224.629623 222.263504,223.956543 225.825577,222.780136 
M238.321915,316.672119 
	C239.149704,316.692932 239.991486,316.821869 240.802994,316.716888 
	C245.791534,316.071289 247.800781,318.186035 247.357498,323.199738 
	C247.061020,326.552948 247.301147,329.953613 247.301147,333.333008 
	C250.187134,328.922241 252.113342,324.401581 254.061417,319.890381 
	C254.721024,318.362915 254.918243,316.976746 253.063965,316.161591 
	C248.125732,313.990570 243.178101,311.840912 237.614090,309.412079 
	C237.624039,312.404419 233.588745,314.249756 238.321915,316.672119 
M236.843613,217.365051 
	C236.732010,216.048264 236.709167,214.716232 236.486115,213.418610 
	C236.214920,211.840897 235.054596,211.307831 233.569901,211.361755 
	C232.105209,211.414963 230.498276,211.179749 229.682098,212.864502 
	C227.580338,217.203049 231.887939,224.235062 237.115784,224.903320 
	C238.295593,222.645264 237.328400,220.424835 236.843613,217.365051 
M246.623337,295.594940 
	C246.457672,294.506317 246.088898,293.455261 244.788696,294.379303 
	C241.859955,296.460663 239.676819,298.910736 240.382996,302.998840 
	C241.063538,306.938507 243.798920,307.696625 247.074203,308.223083 
	C248.664612,303.977661 246.698700,300.179657 246.623337,295.594940 
z"/>
<path fill="#000000" opacity="1.000000" stroke="none" 
	d="
M277.021606,322.334900 
	C264.368988,322.251343 265.742950,323.395782 265.655823,311.279510 
	C265.627167,307.295074 265.755249,303.307495 265.639191,299.326385 
	C265.549622,296.254028 266.662994,294.653198 269.926483,294.695282 
	C276.234467,294.776703 282.544159,294.749023 288.852997,294.728821 
	C291.766937,294.719452 293.132019,296.242126 293.157013,299.021637 
	C293.213806,305.329956 293.217041,311.638855 293.217407,317.947540 
	C293.217560,321.092102 291.502258,322.377258 288.473663,322.332977 
	C284.821930,322.279541 281.168671,322.329498 277.021606,322.334900 
M270.637085,300.277557 
	C269.283234,305.956329 270.296875,311.645447 269.779297,317.777802 
	C275.335724,317.777802 280.114136,317.754608 284.892151,317.786713 
	C287.641327,317.805206 288.734619,316.431030 288.680939,313.769623 
	C288.607452,310.125214 288.613647,306.477020 288.687256,302.832489 
	C288.737701,300.335785 287.650177,299.110840 285.141357,299.207092 
	C280.523071,299.384277 275.873291,298.670502 270.637085,300.277557 
z"/>
<path fill="#000000" opacity="1.000000" stroke="none" 
	d="
M262.239685,329.103455 
	C264.283478,326.572968 266.126862,326.372742 268.364441,328.378845 
	C273.057739,332.586639 277.853668,336.680298 282.624451,340.801178 
	C284.708893,342.601654 285.288635,344.448120 283.258057,346.740417 
	C278.969360,351.581879 274.758759,356.492554 270.519623,361.377869 
	C268.606323,363.582794 266.718109,363.538147 264.559906,361.595551 
	C259.997589,357.488861 255.375275,353.445953 250.693237,349.476318 
	C248.186920,347.351379 247.749329,345.451752 250.183685,342.842438 
	C254.255249,338.478210 258.066650,333.871246 262.239685,329.103455 
M256.107727,348.561096 
	C259.009460,351.053650 261.948242,353.504822 264.798584,356.054810 
	C266.421234,357.506500 267.888336,357.908691 269.477570,356.073700 
	C272.825775,352.207703 276.196136,348.360809 279.745972,344.289795 
	C275.036987,339.716827 270.656799,335.529236 265.429901,331.881958 
	C261.893372,335.938660 258.596527,339.886078 255.106110,343.654205 
	C253.364975,345.533905 253.816635,346.816040 256.107727,348.561096 
z"/>
</svg>